<svg width="210" height="40" viewBox="0 0 210 40" fill="none" xmlns="http://www.w3.org/2000/svg">
<circle cx="20" cy="20" r="20" fill="url(#paint0_linear_4_17)"/>
<g clip-path="url(#clip0_4_17)">
<path d="M30.6667 19.1867C30.9145 19.0021 31.0982 18.7446 31.1923 18.4503C31.2863 18.156 31.2859 17.8396 31.1911 17.5456C31.0962 17.2515 30.9118 16.9945 30.6635 16.8106C30.4152 16.6267 30.1156 16.5251 29.8067 16.52L23.8067 16.2934C23.7772 16.2913 23.7489 16.2808 23.7252 16.263C23.7016 16.2453 23.6836 16.2211 23.6734 16.1934L21.6 10.5934C21.4958 10.3084 21.3066 10.0624 21.058 9.88861C20.8094 9.7148 20.5134 9.62158 20.21 9.62158C19.9067 9.62158 19.6106 9.7148 19.362 9.88861C19.1134 10.0624 18.9242 10.3084 18.82 10.5934L16.7533 16.2134C16.7431 16.2411 16.7251 16.2653 16.7015 16.283C16.6778 16.3008 16.6495 16.3113 16.62 16.3134L10.62 16.54C10.3111 16.5451 10.0115 16.6467 9.76321 16.8306C9.51494 17.0145 9.33046 17.2715 9.23562 17.5656C9.14079 17.8596 9.14036 18.176 9.23441 18.4703C9.32845 18.7646 9.51224 19.0221 9.76002 19.2067L14.4667 22.9067C14.4902 22.9252 14.5078 22.9503 14.5173 22.9787C14.5268 23.0071 14.5277 23.0377 14.52 23.0667L12.9 28.8067C12.8161 29.099 12.8242 29.41 12.9233 29.6975C13.0224 29.9851 13.2077 30.2351 13.4539 30.4135C13.7001 30.592 13.9954 30.6903 14.2995 30.6951C14.6035 30.6998 14.9017 30.6107 15.1533 30.44L20.1267 27.1067C20.1512 27.0898 20.1802 27.0807 20.21 27.0807C20.2398 27.0807 20.2689 27.0898 20.2934 27.1067L25.2667 30.44C25.515 30.6166 25.812 30.7114 26.1167 30.7114C26.4213 30.7114 26.7184 30.6166 26.9667 30.44C27.213 30.2632 27.3984 30.0144 27.4975 29.7279C27.5966 29.4414 27.6045 29.1312 27.52 28.84L25.8867 23.08C25.878 23.0511 25.8785 23.0202 25.8881 22.9916C25.8976 22.963 25.9157 22.938 25.94 22.92L30.6667 19.1867Z" fill="white"/>
</g>
<path d="M53.1136 31V13.5455H59.0114C60.375 13.5455 61.4943 13.7784 62.3693 14.2443C63.2443 14.7045 63.892 15.3381 64.3125 16.1449C64.733 16.9517 64.9432 17.8693 64.9432 18.8977C64.9432 19.9261 64.733 20.8381 64.3125 21.6335C63.892 22.429 63.2472 23.054 62.3778 23.5085C61.5085 23.9574 60.3977 24.1818 59.0455 24.1818H54.2727V22.2727H58.9773C59.9091 22.2727 60.6591 22.1364 61.2273 21.8636C61.8011 21.5909 62.2159 21.2045 62.4716 20.7045C62.733 20.1989 62.8636 19.5966 62.8636 18.8977C62.8636 18.1989 62.733 17.5881 62.4716 17.0653C62.2102 16.5426 61.7926 16.1392 61.2188 15.8551C60.6449 15.5653 59.8864 15.4205 58.9432 15.4205H55.2273V31H53.1136ZM61.3295 23.1591L65.625 31H63.1705L58.9432 23.1591H61.3295ZM73.5405 31.2727C72.2791 31.2727 71.1911 30.9943 70.2763 30.4375C69.3672 29.875 68.6655 29.0909 68.1712 28.0852C67.6825 27.0739 67.4382 25.8977 67.4382 24.5568C67.4382 23.2159 67.6825 22.0341 68.1712 21.0114C68.6655 19.983 69.353 19.1818 70.2337 18.608C71.12 18.0284 72.1541 17.7386 73.3359 17.7386C74.0178 17.7386 74.6911 17.8523 75.3558 18.0795C76.0206 18.3068 76.6257 18.6761 77.1712 19.1875C77.7166 19.6932 78.1513 20.3636 78.4751 21.1989C78.799 22.0341 78.9609 23.0625 78.9609 24.2841V25.1364H68.87V23.3977H76.9155C76.9155 22.6591 76.7678 22 76.4723 21.4205C76.1825 20.8409 75.7678 20.3835 75.228 20.0483C74.6939 19.7131 74.0632 19.5455 73.3359 19.5455C72.5348 19.5455 71.8416 19.7443 71.2564 20.142C70.6768 20.5341 70.2308 21.0455 69.9183 21.6761C69.6058 22.3068 69.4496 22.983 69.4496 23.7045V24.8636C69.4496 25.8523 69.62 26.6903 69.9609 27.3778C70.3075 28.0597 70.7876 28.5795 71.4013 28.9375C72.0149 29.2898 72.728 29.4659 73.5405 29.4659C74.0689 29.4659 74.5462 29.392 74.9723 29.2443C75.4041 29.0909 75.7763 28.8636 76.0888 28.5625C76.4013 28.2557 76.6428 27.875 76.8132 27.4205L78.7564 27.9659C78.5518 28.625 78.2081 29.2045 77.7251 29.7045C77.2422 30.1989 76.6456 30.5852 75.9354 30.8636C75.2251 31.1364 74.4268 31.2727 73.5405 31.2727ZM92.3267 17.9091L87.4858 31H85.4403L80.5994 17.9091H82.7812L86.3949 28.3409H86.5312L90.1449 17.9091H92.3267ZM94.9815 31V17.9091H96.9929V31H94.9815ZM96.0043 15.7273C95.6122 15.7273 95.2741 15.5938 94.9901 15.3267C94.7116 15.0597 94.5724 14.7386 94.5724 14.3636C94.5724 13.9886 94.7116 13.6676 94.9901 13.4006C95.2741 13.1335 95.6122 13 96.0043 13C96.3963 13 96.7315 13.1335 97.0099 13.4006C97.294 13.6676 97.4361 13.9886 97.4361 14.3636C97.4361 14.7386 97.294 15.0597 97.0099 15.3267C96.7315 15.5938 96.3963 15.7273 96.0043 15.7273ZM106.165 31.2727C104.904 31.2727 103.816 30.9943 102.901 30.4375C101.992 29.875 101.29 29.0909 100.796 28.0852C100.308 27.0739 100.063 25.8977 100.063 24.5568C100.063 23.2159 100.308 22.0341 100.796 21.0114C101.29 19.983 101.978 19.1818 102.859 18.608C103.745 18.0284 104.779 17.7386 105.961 17.7386C106.643 17.7386 107.316 17.8523 107.981 18.0795C108.646 18.3068 109.251 18.6761 109.796 19.1875C110.342 19.6932 110.776 20.3636 111.1 21.1989C111.424 22.0341 111.586 23.0625 111.586 24.2841V25.1364H101.495V23.3977H109.54C109.54 22.6591 109.393 22 109.097 21.4205C108.808 20.8409 108.393 20.3835 107.853 20.0483C107.319 19.7131 106.688 19.5455 105.961 19.5455C105.16 19.5455 104.467 19.7443 103.881 20.142C103.302 20.5341 102.856 21.0455 102.543 21.6761C102.231 22.3068 102.075 22.983 102.075 23.7045V24.8636C102.075 25.8523 102.245 26.6903 102.586 27.3778C102.933 28.0597 103.413 28.5795 104.026 28.9375C104.64 29.2898 105.353 29.4659 106.165 29.4659C106.694 29.4659 107.171 29.392 107.597 29.2443C108.029 29.0909 108.401 28.8636 108.714 28.5625C109.026 28.2557 109.268 27.875 109.438 27.4205L111.381 27.9659C111.177 28.625 110.833 29.2045 110.35 29.7045C109.867 30.1989 109.271 30.5852 108.56 30.8636C107.85 31.1364 107.052 31.2727 106.165 31.2727ZM117.612 31L113.623 17.9091H115.737L118.566 27.9318H118.702L121.498 17.9091H123.646L126.407 27.8977H126.543L129.373 17.9091H131.487L127.498 31H125.521L122.657 20.9432H122.452L119.589 31H117.612Z" fill="#484848"/>
<path d="M139.089 31.2386C137.941 31.2386 136.952 31.0284 136.123 30.608C135.293 30.1875 134.654 29.6108 134.205 28.8778C133.756 28.1449 133.532 27.3068 133.532 26.3636C133.532 25.6364 133.685 24.9915 133.992 24.429C134.305 23.8608 134.734 23.3352 135.279 22.8523C135.83 22.3636 136.464 21.875 137.18 21.3864L139.702 19.5114C140.197 19.1875 140.592 18.8409 140.887 18.4716C141.188 18.1023 141.339 17.6193 141.339 17.0227C141.339 16.5795 141.143 16.1506 140.751 15.7358C140.364 15.321 139.856 15.1136 139.225 15.1136C138.782 15.1136 138.39 15.2273 138.049 15.4545C137.714 15.6761 137.45 15.9602 137.256 16.3068C137.069 16.6477 136.975 17 136.975 17.3636C136.975 17.7727 137.086 18.1875 137.308 18.608C137.535 19.0227 137.822 19.4489 138.168 19.8864C138.521 20.3182 138.884 20.7614 139.259 21.2159L147.271 31H144.85L138.237 23.0227C137.623 22.2841 137.066 21.6136 136.566 21.0114C136.066 20.4091 135.668 19.8153 135.373 19.2301C135.077 18.6449 134.93 18.0114 134.93 17.3295C134.93 16.5455 135.103 15.858 135.45 15.267C135.802 14.6705 136.293 14.2074 136.924 13.8778C137.56 13.5426 138.305 13.375 139.157 13.375C140.032 13.375 140.785 13.5455 141.415 13.8864C142.046 14.2216 142.532 14.6676 142.873 15.2244C143.214 15.7756 143.384 16.375 143.384 17.0227C143.384 17.858 143.177 18.5824 142.762 19.196C142.347 19.8097 141.782 20.3807 141.066 20.9091L137.589 23.5C136.805 24.0795 136.273 24.642 135.995 25.1875C135.717 25.733 135.577 26.125 135.577 26.3636C135.577 26.9091 135.719 27.4176 136.004 27.8892C136.288 28.3608 136.688 28.7415 137.205 29.0312C137.722 29.321 138.327 29.4659 139.021 29.4659C139.68 29.4659 140.322 29.3267 140.947 29.0483C141.572 28.7642 142.137 28.3551 142.643 27.821C143.154 27.2869 143.558 26.6449 143.853 25.8949C144.154 25.1449 144.305 24.3011 144.305 23.3636H146.248C146.248 24.5227 146.114 25.4687 145.847 26.2017C145.58 26.9347 145.279 27.5085 144.944 27.9233C144.609 28.3381 144.339 28.6477 144.134 28.8523C144.066 28.9375 144.004 29.0227 143.947 29.108C143.89 29.1932 143.827 29.2784 143.759 29.3636C143.197 29.9943 142.487 30.4659 141.629 30.7784C140.771 31.0852 139.924 31.2386 139.089 31.2386Z" fill="url(#paint1_linear_4_17)"/>
<path d="M149.173 31V13.5455H156.06C157.378 13.5455 158.503 13.7812 159.435 14.2528C160.372 14.7187 161.085 15.3807 161.574 16.2386C162.068 17.0909 162.315 18.0937 162.315 19.2472C162.315 20.4062 162.065 21.4034 161.565 22.2386C161.065 23.0682 160.341 23.7045 159.392 24.1477C158.449 24.5909 157.307 24.8125 155.966 24.8125H151.355V21.8466H155.369C156.074 21.8466 156.659 21.75 157.125 21.5568C157.591 21.3636 157.938 21.0739 158.165 20.6875C158.398 20.3011 158.514 19.821 158.514 19.2472C158.514 18.6676 158.398 18.179 158.165 17.7812C157.938 17.3835 157.588 17.0824 157.116 16.8778C156.651 16.6676 156.063 16.5625 155.352 16.5625H152.864V31H149.173ZM158.599 23.0568L162.938 31H158.864L154.619 23.0568H158.599ZM167.932 31H163.977L170.003 13.5455H174.759L180.776 31H176.821L172.449 17.5341H172.312L167.932 31ZM167.685 24.1392H177.026V27.0199H167.685V24.1392ZM180.079 16.5881V13.5455H194.414V16.5881H189.07V31H185.423V16.5881H180.079ZM196.775 31V13.5455H208.536V16.5881H200.465V20.7472H207.931V23.7898H200.465V27.9574H208.57V31H196.775Z" fill="black"/>
<defs>
<linearGradient id="paint0_linear_4_17" x1="4.66667" y1="2.66667" x2="43" y2="43.6667" gradientUnits="userSpaceOnUse">
<stop stop-color="#D100F3"/>
<stop offset="1" stop-color="#002BC5"/>
</linearGradient>
<linearGradient id="paint1_linear_4_17" x1="130.5" y1="8" x2="130.5" y2="37" gradientUnits="userSpaceOnUse">
<stop stop-color="#D100F3"/>
<stop offset="1" stop-color="#002BC5"/>
</linearGradient>
<clipPath id="clip0_4_17">
<rect width="24" height="24" fill="white" transform="translate(8 8)"/>
</clipPath>
</defs>
</svg>
