<svg width="18" height="22" viewBox="0 0 18 22" fill="none" xmlns="http://www.w3.org/2000/svg">
<path d="M9 11.9166C10.5188 11.9166 11.75 10.6854 11.75 9.16663C11.75 7.64784 10.5188 6.41663 9 6.41663C7.48122 6.41663 6.25 7.64784 6.25 9.16663C6.25 10.6854 7.48122 11.9166 9 11.9166Z" stroke="url(#paint0_linear_4_27)" stroke-width="2" stroke-linecap="round" stroke-linejoin="round"/>
<path d="M9.00001 1.83331C7.05508 1.83331 5.18982 2.60593 3.81456 3.9812C2.43929 5.35646 1.66667 7.22173 1.66667 9.16665C1.66667 10.901 2.03517 12.0358 3.04167 13.2916L9.00001 20.1666L14.9583 13.2916C15.9648 12.0358 16.3333 10.901 16.3333 9.16665C16.3333 7.22173 15.5607 5.35646 14.1855 3.9812C12.8102 2.60593 10.9449 1.83331 9.00001 1.83331V1.83331Z" stroke="url(#paint1_linear_4_27)" stroke-width="2" stroke-linecap="round" stroke-linejoin="round"/>
<defs>
<linearGradient id="paint0_linear_4_27" x1="6.89167" y1="6.78329" x2="12.1625" y2="12.4208" gradientUnits="userSpaceOnUse">
<stop stop-color="#D100F3"/>
<stop offset="1" stop-color="#002BC5"/>
</linearGradient>
<linearGradient id="paint1_linear_4_27" x1="3.37778" y1="3.05553" x2="20.7752" y2="17.9416" gradientUnits="userSpaceOnUse">
<stop stop-color="#D100F3"/>
<stop offset="1" stop-color="#002BC5"/>
</linearGradient>
</defs>
</svg>
