<svg width="40" height="40" viewBox="0 0 40 40" fill="none" xmlns="http://www.w3.org/2000/svg">
<circle cx="20" cy="20" r="20" fill="url(#paint0_linear_4_10)"/>
<g clip-path="url(#clip0_4_10)">
<path d="M30.6667 19.1867C30.9145 19.0021 31.0982 18.7446 31.1923 18.4503C31.2863 18.156 31.2859 17.8396 31.1911 17.5456C31.0962 17.2515 30.9118 16.9945 30.6635 16.8106C30.4152 16.6267 30.1156 16.5251 29.8067 16.52L23.8067 16.2934C23.7772 16.2913 23.7489 16.2808 23.7252 16.263C23.7016 16.2453 23.6836 16.2211 23.6734 16.1934L21.6 10.5934C21.4958 10.3084 21.3066 10.0624 21.058 9.88861C20.8094 9.7148 20.5134 9.62158 20.21 9.62158C19.9067 9.62158 19.6106 9.7148 19.362 9.88861C19.1134 10.0624 18.9242 10.3084 18.82 10.5934L16.7533 16.2134C16.7431 16.2411 16.7251 16.2653 16.7015 16.283C16.6778 16.3008 16.6495 16.3113 16.62 16.3134L10.62 16.54C10.3111 16.5451 10.0115 16.6467 9.76321 16.8306C9.51494 17.0145 9.33046 17.2715 9.23562 17.5656C9.14079 17.8596 9.14036 18.176 9.23441 18.4703C9.32845 18.7646 9.51224 19.0221 9.76002 19.2067L14.4667 22.9067C14.4902 22.9252 14.5078 22.9503 14.5173 22.9787C14.5268 23.0071 14.5277 23.0377 14.52 23.0667L12.9 28.8067C12.8161 29.099 12.8242 29.41 12.9233 29.6975C13.0224 29.9851 13.2077 30.2351 13.4539 30.4135C13.7001 30.592 13.9954 30.6903 14.2995 30.6951C14.6035 30.6998 14.9017 30.6107 15.1533 30.44L20.1267 27.1067C20.1512 27.0898 20.1802 27.0807 20.21 27.0807C20.2398 27.0807 20.2689 27.0898 20.2934 27.1067L25.2667 30.44C25.515 30.6166 25.812 30.7114 26.1167 30.7114C26.4213 30.7114 26.7184 30.6166 26.9667 30.44C27.213 30.2632 27.3984 30.0144 27.4975 29.7279C27.5966 29.4414 27.6045 29.1312 27.52 28.84L25.8867 23.08C25.878 23.0511 25.8785 23.0202 25.8881 22.9916C25.8976 22.963 25.9157 22.938 25.94 22.92L30.6667 19.1867Z" fill="white"/>
</g>
<defs>
<linearGradient id="paint0_linear_4_10" x1="4.66667" y1="2.66667" x2="43" y2="43.6667" gradientUnits="userSpaceOnUse">
<stop stop-color="#D100F3"/>
<stop offset="1" stop-color="#002BC5"/>
</linearGradient>
<clipPath id="clip0_4_10">
<rect width="24" height="24" fill="white" transform="translate(8 8)"/>
</clipPath>
</defs>
</svg>
