<svg width="20" height="20" viewBox="0 0 20 20" fill="none" xmlns="http://www.w3.org/2000/svg">
<path d="M19.25 19.25L15.1378 15.1305L19.25 19.25ZM17.4167 9.62498C17.4167 11.6915 16.5958 13.6733 15.1346 15.1345C13.6733 16.5957 11.6915 17.4166 9.62501 17.4166C7.55853 17.4166 5.57669 16.5957 4.11547 15.1345C2.65425 13.6733 1.83334 11.6915 1.83334 9.62498C1.83334 7.5585 2.65425 5.57666 4.11547 4.11544C5.57669 2.65422 7.55853 1.83331 9.62501 1.83331C11.6915 1.83331 13.6733 2.65422 15.1346 4.11544C16.5958 5.57666 17.4167 7.5585 17.4167 9.62498V9.62498Z" stroke="url(#paint0_linear_7_17)" stroke-width="2" stroke-linecap="round"/>
<defs>
<linearGradient id="paint0_linear_7_17" x1="3.86529" y1="2.99442" x2="20.5563" y2="20.8465" gradientUnits="userSpaceOnUse">
<stop stop-color="#D100F3"/>
<stop offset="1" stop-color="#002BC5"/>
</linearGradient>
</defs>
</svg>
